<?xml version="1.0" encoding="UTF-8" standalone="no"?>
<!-- Created with Inkscape (http://www.inkscape.org/) -->

<svg
   xmlns:dc="http://purl.org/dc/elements/1.1/"
   xmlns:cc="http://creativecommons.org/ns#"
   xmlns:rdf="http://www.w3.org/1999/02/22-rdf-syntax-ns#"
   xmlns:svg="http://www.w3.org/2000/svg"
   xmlns="http://www.w3.org/2000/svg"
   xmlns:sodipodi="http://sodipodi.sourceforge.net/DTD/sodipodi-0.dtd"
   xmlns:inkscape="http://www.inkscape.org/namespaces/inkscape"
   version="1.1"
   id="svg3713"
   xml:space="preserve"
   width="42.666668"
   height="42.666668"
   viewBox="0 0 42.666668 42.666668"
   sodipodi:docname="icon.svg"
   inkscape:version="0.92.3 (2405546, 2018-03-11)"><metadata
     id="metadata3719"><rdf:RDF><cc:Work
         rdf:about=""><dc:format>image/svg+xml</dc:format><dc:type
           rdf:resource="http://purl.org/dc/dcmitype/StillImage" /><dc:title></dc:title></cc:Work></rdf:RDF></metadata><defs
     id="defs3717"><clipPath
       clipPathUnits="userSpaceOnUse"
       id="clipPath3729"><path
         d="M 0,32 H 32 V 0 H 0 Z"
         id="path3727"
         inkscape:connector-curvature="0" /></clipPath><clipPath
       clipPathUnits="userSpaceOnUse"
       id="clipPath3741"><path
         d="M 0,32 H 32 V 0 H 0 Z"
         id="path3739"
         inkscape:connector-curvature="0" /></clipPath><clipPath
       clipPathUnits="userSpaceOnUse"
       id="clipPath3753"><path
         d="M 0,32 H 32 V 0 H 0 Z"
         id="path3751"
         inkscape:connector-curvature="0" /></clipPath></defs><sodipodi:namedview
     pagecolor="#ffffff"
     bordercolor="#666666"
     borderopacity="1"
     objecttolerance="10"
     gridtolerance="10"
     guidetolerance="10"
     inkscape:pageopacity="0"
     inkscape:pageshadow="2"
     inkscape:window-width="1920"
     inkscape:window-height="1017"
     id="namedview3715"
     showgrid="false"
     inkscape:zoom="19.171874"
     inkscape:cx="21.333334"
     inkscape:cy="21.333334"
     inkscape:window-x="3232"
     inkscape:window-y="-8"
     inkscape:window-maximized="1"
     inkscape:current-layer="g3721" /><g
     id="g3721"
     inkscape:groupmode="layer"
     inkscape:label="certificate_32xLG"
     transform="matrix(1.3333333,0,0,-1.3333333,0,42.666667)"><g
       id="g3723"><g
         id="g3725"
         clip-path="url(#clipPath3729)"><g
           id="g3731"
           transform="translate(32,30)"><path
             d="m 0,0 h -29 v -12.812 c -1.79,-1.04 -3,-2.973 -3,-5.188 0,-1.828 0.822,-3.513 2.186,-4.633 l -1.7,-7.367 h 3.951 L -26,-28.124 -24.437,-30 h 3.951 l -1.154,5 H 0 Z"
             style="fill:#f6f6f6;fill-opacity:1;fill-rule:nonzero;stroke:none"
             id="path3733"
             inkscape:connector-curvature="0" /></g></g></g><g
       id="g3735"><g
         id="g3737"
         clip-path="url(#clipPath3741)"><g
           id="g3743"
           transform="translate(8,12.001)"><path
             d="m 0,0 c 0,1.104 -0.896,2 -2,2 -1.104,0 -2,-0.896 -2,-2 0,-1.104 0.896,-2 2,-2 1.104,0 2,0.896 2,2 M -0.456,-3.689 1,-10.001 H 0.5 l -2.5,3 -2.5,-3 H -5 l 1.456,6.312 C -4.985,-3.086 -6,-1.662 -6,-0.001 c 0,2.21 1.792,4 4,4 2.208,0 4,-1.79 4,-4 0,-1.661 -1.015,-3.085 -2.456,-3.688 M 3,8.999 h 13 v 2 H 3 Z m 14,-4 h -6 v -1 h 6 z m 0,2 h -5 v -1 h 5 z m -15,-1 h 9 v 1 H 2 Z m -5,10 V 5.909 c 0.326,0.055 0.658,0.09 1,0.09 0.702,0 1.373,-0.127 2,-0.35 v 0.35 h -1 v 1 h 1 v 1 h -1 v 1 h 1 v 1 h -1 v 1 h 1 v 1 h -1 v 1 h 1 v 1 h 1 v -1 h 1 v 1 h 1 v -1 h 1 v 1 h 1 v -1 h 1 v 1 h 1 v -1 h 1 v 1 h 1 v -1 h 1 v 1 h 1 v -1 h 1 v 1 h 1 v -1 h 1 v 1 h 1 v -1 h 1 v 1 h 1 v -1 h 1 v 1 h 1 v -1 h 1 v -1 h -1 v -1 h 1 v -1 h -1 v -1 h 1 v -1 h -1 v -1 h 1 v -1 h -1 v -1 h 1 v -1 h -1 v -1 h 1 v -1 h -1 v -1 h 1 v -1 h -1 v -1 h 1 v -1 h -1 v -1 h -1 v 1 h -1 v -1 h -1 v 1 h -1 v -1 h -1 v 1 h -1 v -1 h -1 v 1 h -1 v -1 h -1 v 1 H 9 v -1 H 8 v 1 H 7 v -1 H 6 v 1 H 5 v -1 H 4 v 1 H 3.657 C 3.295,-3.028 2.659,-3.94 1.814,-4.634 L 1.899,-5.001 H 22 v 21 z M 2,4.458 C 2.161,4.313 2.314,4.161 2.46,3.999 H 6 v 1 H 2 Z m 8,0.541 H 7 v -1 h 3 z m 7,-4 h -3 v -1 h 3 z m 0,2 h -7 v -1 h 7 z m -4,-2 H 6 v -1 h 7 z m -4,2 H 3.188 c 0.184,-0.316 0.338,-0.65 0.462,-1 H 9 Z m -4,-3 H 4 c 0,0.342 -0.035,0.674 -0.091,1 H 5 Z"
             style="fill:#424242;fill-opacity:1;fill-rule:nonzero;stroke:none"
             id="path3745"
             inkscape:connector-curvature="0" /></g></g></g><g
       id="g3747"><g
         id="g3749"
         clip-path="url(#clipPath3753)"><path
           d="m 25,18 h -5 v 1 h 5 z m 0,-2 h -6 v 1 h 6 z m 0,-2 h -7 v 1 h 7 z m 0,-2 h -3 v 1 h 3 z m -4,0 h -7 v 1 h 7 z m -6,5 h 3 v -1 h -3 z m -5,2 h 9 v -1 h -9 z m 1,4 H 24 V 21 H 11 Z m 17,1 v 1 h -1 v 1 h -1 v -1 h -1 v 1 h -1 v -1 h -1 v 1 h -1 v -1 h -1 v 1 h -1 v -1 h -1 v 1 h -1 v -1 h -1 v 1 h -1 v -1 h -1 v 1 h -1 v -1 h -1 v 1 h -1 v -1 h -1 v 1 H 10 V 25 H 9 v 1 H 8 V 25 H 7 V 24 H 8 V 23 H 7 V 22 H 8 V 21 H 7 V 20 H 8 V 19 H 7 v -1 h 1 v -0.35 c 0.746,-0.265 1.423,-0.671 2,-1.191 V 17 h 4 v -1 h -3.54 c 0.275,-0.307 0.519,-0.641 0.728,-1 H 17 v -1 h -5.35 c 0.115,-0.322 0.202,-0.656 0.259,-1 H 13 v -1 h -1 c 0,-0.695 -0.12,-1.369 -0.343,-2 H 12 V 9 h 1 v 1 h 1 V 9 h 1 v 1 h 1 V 9 h 1 v 1 h 1 V 9 h 1 v 1 h 1 V 9 h 1 v 1 h 1 V 9 h 1 v 1 h 1 V 9 h 1 v 1 h 1 V 9 h 1 v 1 h 1 v 1 h -1 v 1 h 1 v 1 h -1 v 1 h 1 v 1 h -1 v 1 h 1 v 1 h -1 v 1 h 1 v 1 h -1 v 1 h 1 v 1 h -1 v 1 h 1 v 1 h -1 v 1 z M 6,10.001 c -1.104,0 -2,0.895 -2,2 0,1.104 0.896,2 2,2 1.104,0 2,-0.896 2,-2 0,-1.105 -0.896,-2 -2,-2"
           style="fill:#f0eff1;fill-opacity:1;fill-rule:nonzero;stroke:none"
           id="path3755"
           inkscape:connector-curvature="0" /></g></g></g></svg>